<?xml version="1.0" encoding="utf-8"?>
<!-- Generator: Adobe Illustrator 26.3.1, SVG Export Plug-In . SVG Version: 6.00 Build 0)  -->
<svg version="1.1" id="Layer_1" xmlns="http://www.w3.org/2000/svg" xmlns:xlink="http://www.w3.org/1999/xlink" x="0px" y="0px"
	 viewBox="0 0 512 512" style="enable-background:new 0 0 512 512;" xml:space="preserve">
<style type="text/css">
	.st0{fill:#AA3C28;}
	.st1{fill:none;}
</style>
<g>
	<g>
		<path class="st0" d="M448.2,200.9C417.8,94.7,307,33.4,200.9,63.8C94.7,94.2,33.4,205,63.8,311.1
			C94.2,417.2,205,478.7,311.1,448.2C417.3,417.8,478.6,307,448.2,200.9z M414.6,350l-38.2,4.2c-19.4,23.8-45.9,42.1-77.5,51.2
			c-31.7,9.1-63.9,7.6-92.9-2.3l-34.7,16.6l-9.2-5.1l-4.3-38.2c-23.8-19.4-42.1-45.9-51.2-77.6c-9.1-31.7-7.6-63.9,2.3-93
			l-16.6-34.6l5.1-9.3l38.2-4.2c19.4-23.8,45.9-42.1,77.6-51.2c31.7-9.1,63.9-7.6,92.9,2.4l34.7-16.7l9.2,5.1l4.2,38.2
			c23.8,19.4,42.1,45.9,51.2,77.5c9.1,31.7,7.5,63.9-2.4,92.9l16.6,34.7L414.6,350z"/>
		<path class="st0" d="M343.3,242.4L191.1,158l-10.7,19.4c35.9,19.9,50.2,52.1,36.6,76.8c-7.7,13.9-27.9,15.3-43.6,6.6l-11.8,21.3
			l21.2,11.8c12.8-3.9,29.8-1,47.3,8.7c17.5,9.7,29,22.6,32.5,35.5l21.2,11.7l11.8-21.3c-11.7-6.5-16.1-21-9.5-32.9
			c6.5-11.8,20.1-11.2,33.6-9.4c14.1,1.9,44.1,4.5,53.6-12.6l-36.2-20L343.3,242.4z"/>
	</g>
	<rect class="st1" width="512" height="512"/>
</g>
</svg>
